<?xml version="1.0" standalone="no"?>
<!DOCTYPE svg PUBLIC "-//W3C//DTD SVG 20010904//EN"
 "http://www.w3.org/TR/2001/REC-SVG-20010904/DTD/svg10.dtd">
<svg version="1.0" xmlns="http://www.w3.org/2000/svg"
 width="288.000000pt" height="288.000000pt" viewBox="0 0 288.000000 288.000000"
 preserveAspectRatio="xMidYMid meet">
<metadata>
Created by potrace 1.14, written by Peter Selinger 2001-2017
</metadata>
<g transform="translate(0.000000,288.000000) scale(0.100000,-0.100000)"
fill="#000000" stroke="none">
<path d="M1115 2824 c-55 -18 -83 -41 -104 -83 -17 -32 -72 -202 -162 -498
-10 -35 -28 -92 -39 -128 -11 -36 -28 -93 -39 -127 -37 -124 -223 -726 -262
-851 -22 -70 -42 -136 -44 -147 -2 -11 -7 -25 -10 -30 -10 -15 1 -12 63 19
124 62 337 133 483 161 l67 13 32 111 c18 61 46 156 62 211 16 55 51 174 78
265 83 286 121 413 142 483 12 41 28 71 39 78 37 19 54 -4 88 -123 19 -62 39
-131 46 -153 7 -22 22 -71 33 -110 11 -38 32 -108 46 -155 14 -47 60 -200 101
-340 42 -140 80 -258 83 -262 4 -4 23 -10 42 -13 138 -24 383 -106 512 -171
27 -14 51 -24 53 -22 1 2 -11 44 -27 93 -15 50 -30 97 -31 105 -2 8 -20 69
-41 135 -70 227 -157 509 -276 900 -145 476 -169 547 -194 580 -52 68 -56 69
-399 70 -214 1 -318 -2 -342 -11z"/>
<path d="M965 866 c-26 -169 8 -324 93 -426 l29 -34 7 35 c9 51 54 90 110 96
100 12 136 -32 143 -170 2 -51 9 -108 15 -127 23 -77 87 -154 166 -198 24 -14
27 -10 12 18 -18 33 -20 128 -4 173 20 55 49 85 165 162 53 36 113 83 132 104
71 79 106 177 101 281 -4 69 -15 90 -36 73 -52 -42 -179 -85 -293 -99 -240
-29 -503 27 -596 127 -15 16 -29 29 -32 29 -3 0 -9 -20 -12 -44z"/>
</g>
</svg>
